<?xml version="1.0" standalone="no"?>
<!DOCTYPE svg PUBLIC "-//W3C//DTD SVG 20010904//EN"
 "http://www.w3.org/TR/2001/REC-SVG-20010904/DTD/svg10.dtd">
<svg version="1.0" xmlns="http://www.w3.org/2000/svg"
 width="1996.000000pt" height="921.000000pt" viewBox="0 0 1996.000000 921.000000"
 preserveAspectRatio="xMidYMid meet">

<g transform="translate(0.000000,921.000000) scale(0.100000,-0.100000)"
fill="#000000" stroke="none">
<path d="M3800 7295 c-169 -29 -662 -145 -767 -180 -170 -57 -282 -130 -381
-250 -92 -111 -227 -224 -434 -364 -191 -129 -268 -237 -276 -387 -10 -185 88
-362 314 -567 115 -103 164 -160 206 -239 18 -34 46 -76 63 -94 30 -31 105
-61 125 -49 6 3 51 10 102 16 50 5 93 11 95 12 2 2 -3 25 -11 50 -13 43 -13
48 2 56 10 4 52 5 96 0 45 -4 89 -4 103 2 26 10 26 17 -3 87 -16 39 -11 40 29
6 16 -14 57 -39 91 -56 50 -26 76 -32 146 -36 61 -3 95 0 120 11 35 15 34 15
-56 15 -70 0 -103 5 -138 21 -25 11 -46 24 -46 29 0 6 19 21 43 35 51 31 184
127 174 127 -3 0 -52 -18 -108 -41 -109 -43 -198 -69 -237 -69 -54 0 8 31 129
65 48 13 154 69 312 165 27 16 38 19 36 9 -2 -8 1 -33 5 -56 10 -57 0 -96 -32
-129 l-27 -27 35 7 c55 10 122 57 157 109 34 50 50 116 35 142 -7 14 -18 2
-53 -62 -25 -43 -51 -78 -58 -78 -8 0 -23 24 -34 53 l-20 53 24 26 c106 114
514 472 525 460 7 -7 -68 -347 -77 -347 -8 0 -19 52 -19 93 0 19 -4 27 -9 22
-5 -6 -11 -68 -13 -140 -3 -120 -5 -134 -31 -179 -15 -27 -25 -51 -23 -54 3
-2 27 6 53 19 77 38 91 75 110 279 15 153 25 200 35 154 2 -11 22 1 73 45 64
54 71 58 83 43 12 -15 17 -13 50 26 31 35 39 41 50 30 11 -11 20 -6 48 27 18
22 34 43 34 48 0 4 4 7 9 7 5 0 12 -18 16 -40 l7 -40 64 51 c51 41 65 48 70
35 9 -24 18 -20 78 35 l55 50 88 -75 88 -76 18 42 c23 54 21 53 58 38 42 -18
61 -63 49 -116 -17 -75 -23 -248 -10 -288 7 -24 41 -64 95 -117 84 -82 119
-127 281 -359 72 -103 88 -133 92 -171 8 -80 -33 -133 -110 -144 l-48 -7 15
36 c18 44 19 43 -1 50 -10 4 -47 -10 -90 -33 -68 -37 -94 -45 -136 -42 -30 2
-58 38 -58 75 0 28 7 40 35 62 45 34 35 50 -15 24 -43 -22 -58 -45 -95 -148
-32 -89 -31 -105 4 -64 27 32 29 32 72 23 77 -18 111 -14 169 23 53 34 55 34
60 14 6 -23 56 -46 105 -47 78 -2 140 82 133 180 -4 50 -12 69 -62 144 -31 48
-129 177 -218 288 -88 110 -167 217 -176 236 -13 31 -13 55 -2 176 7 77 14
143 16 147 3 4 23 0 46 -8 22 -7 44 -14 48 -14 14 0 -80 212 -115 260 -29 39
-65 70 -65 56 0 -1 18 -47 40 -102 22 -54 39 -105 38 -113 -2 -8 -40 22 -95
73 -50 47 -94 86 -97 86 -3 0 -6 -17 -6 -38 0 -39 -23 -82 -44 -82 -6 0 -29
18 -50 39 -46 47 -71 59 -151 69 l-60 8 65 32 c56 28 84 34 209 47 80 9 151
21 158 27 34 28 -32 135 -159 256 -108 104 -216 230 -297 350 -115 170 -120
172 -413 171 -187 0 -245 -4 -358 -24z"/>
<path d="M4671 6084 c-124 -33 -237 -118 -285 -212 -14 -28 -50 -94 -81 -146
-52 -91 -75 -146 -60 -146 4 0 26 20 50 44 23 25 64 55 91 69 46 23 47 24 21
31 -49 12 -44 18 142 184 145 130 229 159 318 107 l43 -26 0 49 0 49 -61 7
c-86 8 -116 7 -178 -10z"/>
<path d="M12105 6059 c-60 -3 -99 -6 -85 -7 14 -1 36 -9 48 -18 22 -15 22 -18
22 -252 0 -130 -4 -243 -9 -250 -5 -8 -24 -18 -42 -22 -23 -5 7 -8 91 -8 98 0
116 2 81 9 -25 5 -48 14 -53 21 -4 7 -8 61 -8 121 l0 107 60 0 60 0 37 -57
c114 -181 134 -202 206 -210 l42 -4 -33 17 c-39 20 -68 56 -139 173 l-52 86
22 15 c97 66 113 170 37 234 -54 45 -113 54 -285 45z m205 -35 c36 -22 60 -69
60 -119 0 -80 -48 -120 -159 -131 l-61 -7 0 136 c0 99 3 137 13 141 23 10 116
-2 147 -20z"/>
<path d="M13075 6056 c-89 -40 -106 -148 -32 -213 18 -16 69 -52 112 -81 96
-64 118 -91 118 -145 0 -34 -6 -46 -36 -74 -35 -32 -54 -38 -107 -33 -45 4
-79 30 -111 83 l-31 52 7 -50 c10 -78 16 -99 25 -84 7 10 17 9 52 -4 104 -40
193 -12 236 73 41 82 10 144 -116 226 -120 78 -152 110 -152 150 0 47 35 84
86 91 61 8 114 -26 160 -103 10 -15 11 -9 7 31 -6 66 -12 83 -22 67 -6 -10
-18 -8 -52 7 -51 24 -101 26 -144 7z"/>
<path d="M14570 6060 c-96 -4 -116 -7 -88 -13 21 -4 42 -16 48 -27 6 -11 10
-111 10 -244 0 -213 -1 -227 -20 -246 -11 -11 -32 -21 -47 -21 -65 -3 57 -18
147 -18 187 -1 284 30 359 115 98 112 91 280 -15 374 -61 53 -120 74 -239 83
-16 2 -86 0 -155 -3z m185 -21 c138 -25 212 -104 223 -235 9 -112 -48 -218
-141 -263 -53 -26 -183 -39 -215 -22 -22 12 -22 15 -22 266 0 193 3 255 13
258 21 9 81 7 142 -4z"/>
<path d="M15694 6061 c6 -10 -142 -449 -169 -501 -9 -17 -31 -38 -48 -45 -30
-13 -25 -14 73 -14 107 1 114 3 47 14 -21 3 -41 13 -44 21 -3 8 10 59 28 115
l34 100 94 -3 95 -3 35 -102 c40 -114 39 -121 -26 -133 -25 -5 4 -8 87 -8 120
-1 123 -1 85 13 -22 8 -41 15 -41 15 -5 0 -44 107 -109 295 -40 116 -76 218
-80 228 -5 11 -18 17 -37 17 -16 0 -27 -4 -24 -9z m59 -169 c21 -57 37 -108
37 -113 0 -5 -38 -9 -85 -9 l-84 0 42 120 c23 65 44 116 48 112 3 -4 22 -53
42 -110z"/>
<path d="M16570 6060 c-69 -3 -114 -7 -100 -8 14 -1 36 -9 48 -18 22 -15 22
-18 22 -252 0 -130 -4 -243 -9 -251 -5 -8 -26 -17 -47 -21 -35 -6 -31 -7 41
-15 100 -10 254 -1 321 20 117 35 204 148 204 265 0 128 -61 213 -184 259 -63
23 -134 28 -296 21z m264 -43 c56 -26 99 -65 123 -112 22 -41 29 -154 13 -210
-17 -59 -86 -137 -142 -160 -54 -21 -165 -30 -200 -16 l-28 11 0 254 c0 194 3
256 13 260 29 13 170 -4 221 -27z"/>
<path d="M7355 6046 l40 -13 5 -204 c5 -194 7 -206 30 -248 36 -65 91 -91 189
-91 98 1 149 23 188 81 28 42 28 45 33 233 3 118 9 199 17 211 6 10 26 25 45
31 29 11 22 12 -72 12 -87 0 -99 -2 -70 -10 61 -17 60 -13 60 -222 0 -179 -2
-194 -23 -231 -32 -58 -93 -87 -174 -83 -71 4 -106 24 -138 79 -18 30 -20 56
-23 221 -2 118 0 194 7 206 6 11 28 24 48 30 31 8 16 10 -82 10 -110 0 -117
-1 -80 -12z"/>
<path d="M8410 6042 l45 -18 2 -224 c3 -251 0 -267 -57 -287 -31 -11 -24 -12
70 -11 76 0 96 2 70 8 -58 14 -60 21 -60 264 0 187 2 218 14 206 7 -8 95 -119
195 -246 100 -128 188 -237 196 -244 13 -11 15 18 15 236 0 137 3 260 7 273 4
14 21 30 47 41 l41 19 -105 0 -105 -1 43 -15 c28 -10 44 -22 47 -36 3 -12 4
-111 3 -219 l-3 -197 -184 235 -184 234 -71 -1 -71 0 45 -17z"/>
<path d="M9464 6047 c33 -10 41 -18 49 -46 10 -39 6 -466 -5 -476 -4 -4 -22
-11 -40 -15 -22 -5 4 -8 77 -7 61 0 98 2 83 4 -54 8 -58 26 -58 273 0 248 1
252 60 268 28 8 10 10 -85 10 -108 0 -116 -1 -81 -11z"/>
<path d="M10127 6049 c41 -12 41 -12 158 -311 93 -235 108 -268 120 -256 3 3
50 121 105 262 54 142 105 265 112 273 7 9 26 22 43 29 27 12 21 13 -70 12
-66 0 -88 -3 -65 -7 44 -9 60 -18 60 -36 0 -7 -35 -105 -78 -217 -43 -111 -82
-212 -86 -223 -6 -15 -29 34 -97 205 -49 124 -89 230 -89 237 0 15 15 24 54
34 19 4 -13 7 -84 7 -88 0 -107 -2 -83 -9z"/>
<path d="M11150 6048 c19 -5 41 -14 48 -20 17 -15 18 -493 0 -504 -7 -4 -28
-11 -48 -15 -19 -4 60 -7 176 -8 l211 -1 7 61 c8 72 2 87 -13 32 -17 -61 -38
-74 -128 -80 -45 -3 -90 0 -105 6 l-28 11 0 125 0 125 69 0 c91 0 118 -11 130
-52 7 -27 9 -16 9 57 -1 50 -3 78 -5 63 -6 -41 -28 -51 -119 -56 l-84 -5 0
127 0 126 89 0 c104 0 125 -12 140 -75 9 -38 9 -37 10 28 l1 67 -197 -1 c-150
-1 -190 -3 -163 -11z"/>
<path d="M13803 6050 c58 -18 57 -12 57 -275 0 -262 0 -260 -55 -268 -16 -2
22 -4 85 -4 63 0 102 2 85 4 -53 7 -55 16 -55 274 0 254 -2 247 55 267 24 8 8
10 -85 10 -78 0 -106 -2 -87 -8z"/>
<path d="M4700 5838 c-74 -89 -136 -165 -138 -170 -7 -17 20 -7 84 33 36 22
67 39 68 37 18 -24 46 -78 46 -86 0 -6 -24 -19 -52 -29 l-53 -18 47 -3 c87 -6
137 34 153 120 6 33 5 37 -16 40 -13 2 -29 14 -36 28 -10 21 -9 30 6 55 11 19
25 30 39 29 19 0 22 5 22 42 0 25 -7 50 -17 63 -18 21 -19 19 -153 -141z"/>
<path d="M3875 5868 c-36 -156 -32 -151 -68 -83 l-32 60 -3 -49 c-2 -37 2 -56
16 -75 20 -28 81 -66 124 -76 l26 -7 -24 48 c-30 59 -32 147 -5 233 15 47 16
61 6 61 -9 0 -23 -40 -40 -112z"/>
<path d="M3728 5533 c-3 -74 -8 -99 -36 -157 -18 -38 -30 -71 -28 -74 12 -12
66 43 82 83 14 37 16 62 10 132 -9 118 -23 126 -28 16z"/>
<path d="M3860 5526 c0 -3 28 -43 61 -88 34 -46 60 -76 57 -68 -3 8 -11 31
-18 52 -12 32 -11 40 4 63 10 15 16 28 14 30 -6 6 -118 17 -118 11z"/>
<path d="M3540 5338 c-40 -82 -69 -105 -146 -114 -78 -9 -80 -11 -53 -41 97
-105 338 -74 434 57 42 56 29 66 -23 17 -27 -24 -63 -52 -79 -61 -40 -20 -104
-29 -122 -17 -15 10 -15 10 24 174 7 31 10 57 7 57 -4 -1 -23 -33 -42 -72z"/>
<path d="M2920 5211 c41 -38 73 -71 70 -74 -3 -2 -27 -16 -54 -29 l-49 -25 46
-28 c26 -15 68 -33 94 -41 50 -15 179 -19 187 -6 3 5 -40 19 -94 32 -55 13
-100 25 -100 26 0 1 13 30 30 65 32 69 30 92 -5 59 -17 -16 -25 -18 -31 -9 -7
12 17 37 78 81 22 16 18 17 -112 17 l-135 0 75 -68z"/>
<path d="M3846 5183 l-97 -75 28 -30 c40 -43 75 -58 130 -58 69 1 130 31 148
74 24 57 18 76 -10 34 -14 -21 -34 -42 -45 -48 -28 -15 -92 -12 -117 5 l-22
16 45 75 c26 41 44 77 42 79 -2 2 -48 -30 -102 -72z"/>
<path d="M2837 5152 c-35 -16 -52 -16 -170 -5 -185 17 -175 17 -170 -11 6 -32
-29 -56 -82 -56 l-40 -1 35 -30 c63 -55 124 -89 193 -110 38 -11 71 -18 73
-16 3 2 -28 28 -68 57 l-72 53 113 44 c63 24 115 42 117 40 1 -1 -22 -18 -52
-37 -29 -19 -54 -37 -54 -40 0 -3 32 -18 71 -34 l71 -29 -40 -16 c-22 -9 -43
-19 -47 -23 -4 -3 35 -39 85 -79 80 -63 90 -73 74 -82 -15 -9 -7 -14 51 -34
39 -13 102 -26 140 -29 60 -4 77 -2 120 20 l50 24 -103 1 -102 1 24 38 c13 20
35 61 50 90 l27 53 -66 -50 c-83 -64 -110 -66 -165 -13 l-40 37 30 47 c17 27
30 50 30 52 0 3 -29 8 -65 11 -36 4 -68 12 -71 17 -4 6 20 37 52 69 62 62 62
68 1 41z"/>
<path d="M3240 5121 c0 -17 38 -51 58 -51 9 1 31 7 47 14 l30 13 -40 11 c-84
23 -95 24 -95 13z"/>
<path d="M3696 5035 c-12 -73 -31 -112 -65 -129 -53 -28 -61 -22 -61 39 0 30
-3 55 -7 55 -5 -1 -25 -15 -45 -33 -33 -29 -37 -38 -39 -87 l-3 -55 36 -9 c49
-12 117 14 157 59 35 41 58 132 44 179 -9 31 -9 31 -17 -19z"/>
<path d="M5313 4980 c2 -19 10 -56 17 -81 26 -90 -5 -126 -122 -140 -92 -11
-133 -22 -133 -37 0 -14 5 -15 48 -7 18 4 66 2 107 -4 114 -15 138 -56 63
-109 -24 -16 -37 -18 -98 -11 -38 4 -71 6 -72 5 -1 -1 19 -17 44 -36 51 -39
48 -34 99 -143 48 -102 53 -150 24 -208 -61 -119 -118 -170 -241 -210 -142
-47 -205 -101 -286 -250 l-53 -95 0 -228 c0 -141 -4 -235 -11 -247 -14 -28
-50 -39 -93 -29 -20 4 -36 4 -36 -1 0 -5 4 -9 9 -9 16 0 140 -128 194 -201 74
-102 155 -238 281 -479 119 -225 130 -243 140 -214 4 11 33 32 66 47 51 24
170 125 170 145 0 4 -50 70 -111 147 -61 77 -169 217 -239 310 -70 94 -153
195 -185 225 -32 30 -70 66 -85 80 -34 32 -50 114 -53 260 -2 129 11 177 91
319 l58 105 136 56 c152 64 179 80 237 146 85 96 104 231 47 328 -36 62 -34
90 13 141 50 54 66 109 49 162 -9 26 -11 49 -4 74 12 50 2 94 -40 164 -33 57
-35 58 -31 25z"/>
<path d="M3771 4953 c-25 -98 -67 -145 -156 -171 l-30 -9 30 -16 c83 -43 187
-25 248 42 37 41 62 81 51 81 -4 0 -24 -16 -45 -35 -23 -20 -50 -35 -64 -35
-29 0 -30 11 -14 109 12 79 -3 104 -20 34z"/>
<path d="M2431 4891 c-1 -62 -4 -82 -13 -78 -55 20 -60 20 -53 -5 4 -12 16
-40 27 -61 11 -22 17 -41 14 -44 -3 -3 -20 0 -37 6 -53 18 -52 -1 3 -63 34
-38 45 -57 32 -53 -46 14 -74 19 -74 12 0 -3 32 -51 71 -106 69 -97 71 -100
54 -119 -18 -20 -17 -20 27 -20 32 0 69 -11 119 -35 99 -47 279 -79 279 -50 0
8 -8 15 -17 15 -29 0 -93 20 -93 29 0 5 14 11 32 15 l32 6 -58 59 c-32 32 -54
61 -49 63 4 3 40 11 78 18 76 14 117 29 78 30 -51 0 -135 43 -194 97 -33 31
-63 53 -66 49 -4 -3 4 -51 17 -106 13 -55 21 -102 18 -106 -15 -15 -86 -15
-121 -1 -32 14 -77 66 -77 90 0 4 29 7 65 7 l66 0 -61 80 c-34 44 -58 85 -55
90 3 6 26 10 50 10 56 0 63 12 19 33 -55 27 -31 39 29 15 78 -31 78 -31 136
-5 l54 24 -47 12 c-33 8 -60 25 -92 56 -24 24 -44 40 -44 34 0 -23 42 -85 73
-106 39 -28 20 -30 -31 -4 -36 18 -92 73 -159 156 l-32 40 0 -84z"/>
<path d="M3310 4919 c-52 -23 -97 -43 -100 -46 -6 -6 50 -54 109 -94 30 -19
56 -29 80 -28 20 0 29 3 21 6 -8 3 -36 26 -62 51 l-48 46 23 24 c31 33 70 52
109 52 31 1 32 1 14 15 -28 21 -40 19 -146 -26z"/>
<path d="M17050 4917 c0 -2 5 -18 11 -35 10 -29 -11 -96 -241 -764 -139 -403
-266 -762 -282 -797 -17 -35 -49 -82 -72 -106 -35 -37 -51 -45 -118 -61 -62
-14 -78 -21 -78 -36 0 -17 18 -18 330 -18 314 0 330 1 330 18 0 16 -14 20 -92
30 -125 16 -166 29 -200 62 -20 21 -28 38 -28 64 0 19 30 122 66 228 36 106
82 241 102 301 l36 107 292 0 c269 0 292 -1 299 -17 4 -10 50 -139 102 -288
107 -304 120 -366 81 -402 -26 -25 -102 -47 -195 -58 -53 -6 -63 -10 -63 -26
0 -18 13 -19 385 -19 372 0 385 1 385 19 0 15 -10 21 -42 26 -84 14 -164 44
-190 72 -15 16 -39 55 -55 88 -15 33 -149 409 -299 835 l-271 775 -97 3 c-53
1 -96 1 -96 -1z m195 -560 c70 -202 125 -370 123 -373 -3 -2 -122 -3 -265 -2
l-261 3 131 383 c72 210 134 377 138 370 3 -7 64 -179 134 -381z"/>
<path d="M10845 4900 c-110 -4 -217 -8 -237 -9 -30 -1 -38 -5 -38 -19 0 -16
14 -20 100 -30 111 -13 151 -29 177 -69 17 -25 18 -77 18 -763 0 -719 0 -736
-20 -770 -28 -49 -93 -79 -204 -93 -78 -9 -91 -14 -91 -30 0 -18 17 -18 493
-14 558 4 561 5 727 84 111 54 201 136 243 223 140 291 11 582 -310 695 -37
14 -62 25 -55 25 32 0 164 72 207 111 116 107 141 275 62 423 -52 98 -172 177
-330 217 -70 18 -116 22 -312 24 -126 1 -320 -1 -430 -5z m639 -77 c173 -43
273 -156 284 -319 7 -106 -16 -172 -81 -238 -88 -90 -189 -115 -469 -116
l-158 0 0 339 0 340 53 5 c146 17 277 13 371 -11z m19 -762 c177 -47 291 -152
331 -306 44 -165 -6 -361 -117 -460 -63 -58 -127 -91 -213 -111 -77 -17 -255
-20 -315 -4 -56 15 -108 65 -119 115 -5 22 -10 211 -10 419 l0 379 183 -6
c138 -4 201 -10 260 -26z"/>
<path d="M12655 4900 c-104 -4 -202 -8 -217 -9 -21 -1 -28 -6 -28 -21 0 -17 7
-20 43 -20 61 0 158 -27 184 -52 54 -51 54 -43 51 -818 -3 -806 1 -759 -80
-799 -24 -11 -78 -26 -121 -33 -63 -9 -77 -15 -77 -30 0 -17 20 -18 395 -18
372 0 395 1 395 18 0 15 -17 20 -107 33 -60 9 -125 24 -146 34 -66 31 -67 37
-67 387 0 172 0 321 0 331 0 15 12 17 98 18 53 0 137 4 186 8 l89 6 22 -30
c13 -16 82 -126 155 -244 73 -118 153 -247 180 -285 134 -200 265 -284 468
-304 74 -7 82 -6 82 9 0 13 -15 22 -53 33 -64 19 -117 56 -196 137 -77 78
-136 164 -253 369 -53 91 -121 205 -152 254 -31 50 -56 93 -56 96 0 3 28 20
63 37 221 110 324 328 257 545 -51 165 -183 273 -400 329 -72 18 -118 22 -305
24 -121 1 -305 -1 -410 -5z m590 -72 c215 -46 338 -220 322 -453 -7 -101 -19
-141 -60 -202 -76 -113 -212 -168 -459 -186 -87 -6 -160 -8 -163 -5 -8 7 -6
840 1 847 19 20 266 19 359 -1z"/>
<path d="M6700 4873 c0 -14 16 -22 78 -36 42 -9 102 -30 132 -45 l55 -28 0
-719 c0 -675 -1 -723 -18 -768 -27 -69 -88 -107 -214 -132 -24 -5 -33 -12 -33
-26 0 -18 11 -19 325 -19 306 0 325 1 325 18 0 15 -14 20 -81 30 -102 15 -175
53 -202 105 -12 23 -22 73 -28 134 -12 136 -12 1306 0 1298 7 -4 1195 -1505
1277 -1614 2 -2 17 -5 34 -7 l30 -4 0 733 c0 402 5 771 10 820 15 147 60 195
213 228 44 9 57 16 57 31 0 17 -16 18 -326 18 -302 0 -325 -1 -322 -17 2 -13
22 -20 81 -29 88 -14 162 -47 190 -85 33 -45 37 -148 35 -768 l-3 -605 -591
750 -591 749 -216 3 c-202 2 -217 1 -217 -15z"/>
<path d="M8900 4871 c0 -15 11 -19 68 -24 139 -13 212 -52 226 -118 10 -54 7
-1431 -4 -1470 -19 -69 -77 -97 -236 -114 -54 -6 -64 -10 -64 -26 0 -18 21
-19 673 -19 l674 0 17 168 c9 92 20 191 23 220 5 47 4 52 -14 52 -16 0 -23
-15 -41 -91 -42 -170 -98 -248 -194 -269 -27 -5 -164 -10 -304 -10 -290 0
-306 3 -323 68 -7 22 -11 178 -11 395 l0 357 225 0 c129 0 246 -5 277 -11 85
-19 111 -59 133 -206 5 -33 11 -43 26 -43 18 0 19 11 19 275 0 260 -1 275 -18
275 -15 0 -21 -13 -31 -67 -28 -153 -32 -155 -368 -161 l-263 -5 0 389 0 389
242 -2 c134 -2 266 -5 295 -8 104 -12 150 -72 182 -236 14 -74 21 -95 36 -98
17 -3 18 6 11 160 -4 90 -9 183 -12 207 l-6 42 -619 0 c-596 0 -619 -1 -619
-19z"/>
<path d="M14432 4873 c2 -13 22 -20 82 -29 97 -15 130 -29 153 -63 17 -24 18
-71 18 -788 0 -757 0 -762 -21 -790 -30 -40 -65 -54 -155 -60 -68 -5 -79 -8
-79 -24 0 -18 16 -19 360 -19 344 0 360 1 360 19 0 15 -11 19 -75 24 -90 7
-142 31 -170 78 -19 33 -20 55 -23 752 -2 499 1 730 8 758 20 72 77 105 203
117 47 4 57 8 57 23 0 18 -16 19 -361 19 -335 0 -360 -1 -357 -17z"/>
<path d="M15460 4872 c0 -15 15 -20 85 -29 95 -13 156 -41 176 -82 11 -21 15
-196 17 -945 2 -805 0 -926 -13 -980 -31 -119 -88 -184 -170 -194 -50 -5 -85
12 -164 78 -35 30 -56 40 -82 40 -68 0 -121 -91 -85 -145 9 -14 38 -36 66 -50
67 -34 140 -41 219 -21 150 38 252 127 331 289 87 177 83 131 89 1072 6 782 7
833 24 859 23 34 68 54 170 74 63 12 77 19 77 34 0 17 -17 18 -370 18 -348 0
-370 -1 -370 -18z"/>
<path d="M3246 4676 l-69 -62 33 -14 c99 -41 280 31 280 112 0 19 -1 19 -20
-5 -26 -32 -97 -67 -138 -67 -35 0 -37 3 -21 48 19 55 6 52 -65 -12z"/>
<path d="M2740 4715 c0 -3 11 -27 24 -53 42 -83 99 -122 175 -122 61 0 56 13
-15 40 -36 14 -66 30 -67 35 0 6 29 21 66 35 37 13 66 29 64 35 -2 5 -33 11
-68 12 -35 2 -86 7 -112 13 -54 11 -67 12 -67 5z"/>
<path d="M3690 4664 c-54 -41 -63 -42 -50 -8 8 21 -8 10 -70 -46 -44 -40 -79
-74 -77 -76 1 -2 24 3 50 11 26 8 47 12 47 9 0 -3 -28 -48 -61 -100 -40 -62
-90 -121 -143 -170 -151 -141 -252 -191 -364 -182 l-56 5 47 -41 c26 -23 47
-44 47 -48 0 -12 -151 -202 -209 -262 -31 -32 -111 -103 -178 -157 -67 -55
-153 -126 -190 -160 -40 -35 -99 -75 -143 -96 -110 -51 -202 -147 -312 -325
-30 -48 -75 -104 -103 -128 -62 -53 -69 -64 -54 -92 37 -70 240 -267 396 -384
322 -243 806 -428 1323 -506 134 -20 539 -17 675 5 240 40 508 119 665 197 41
20 87 40 103 44 32 8 33 15 8 64 -10 20 -47 107 -81 192 -119 295 -192 427
-305 548 -58 63 -165 152 -183 152 -18 0 -42 -37 -42 -66 0 -47 -13 -58 -68
-56 -39 1 -73 12 -151 51 -198 100 -383 166 -639 231 -383 95 -594 122 -1046
130 -5 0 -3 6 4 14 17 22 399 298 440 318 34 18 264 96 347 117 l42 12 -39 56
c-22 31 -39 58 -37 60 2 1 63 -15 135 -36 73 -21 132 -36 132 -33 0 4 -39 46
-87 95 -68 68 -82 87 -63 83 111 -25 255 -54 257 -52 1 1 -34 43 -78 94 -44
51 -78 92 -74 92 3 0 60 -13 125 -30 65 -16 121 -30 124 -30 3 0 -17 37 -44
82 -27 45 -48 84 -45 86 2 2 73 -18 157 -46 84 -28 177 -53 206 -56 38 -4 82
-21 159 -62 l106 -57 116 -7 c87 -5 126 -12 155 -27 21 -11 35 -22 30 -25 -5
-3 -47 -2 -94 3 -214 20 -190 -3 38 -37 214 -32 239 -53 208 -172 -15 -61 -14
-82 3 -82 4 0 20 45 36 99 15 55 31 104 34 109 3 5 71 31 150 57 102 34 139
50 128 56 -10 6 -39 0 -83 -17 -114 -43 -195 -38 -379 24 -82 28 -210 67 -284
88 -151 42 -191 65 -344 192 -154 128 -273 192 -361 192 l-41 1 30 27 c17 15
51 43 75 63 57 46 39 58 -20 13z"/>
<path d="M3031 4519 c-36 -52 -95 -94 -149 -105 -18 -4 -32 -9 -32 -12 0 -17
57 -75 90 -92 40 -21 105 -27 114 -11 3 5 -15 16 -40 26 -53 20 -54 12 20 139
48 84 56 107 37 106 -3 0 -21 -23 -40 -51z"/>
<path d="M3390 4503 c-58 -41 -128 -73 -158 -73 -33 0 -53 13 -86 58 l-24 33
-6 -63 c-4 -35 -10 -76 -13 -92 l-5 -29 43 7 c67 10 198 78 248 130 51 52 52
65 1 29z"/>
<path d="M3355 4372 c-68 -61 -167 -124 -240 -152 -72 -27 -188 -30 -252 -6
-41 15 -43 14 -43 -5 0 -11 11 -31 25 -45 25 -24 29 -25 103 -19 222 19 361
89 437 219 15 26 26 49 24 50 -2 2 -26 -17 -54 -42z"/>
</g>
</svg>
